<?xml version="1.0" standalone="no"?>
<!DOCTYPE svg PUBLIC "-//W3C//DTD SVG 20010904//EN"
 "http://www.w3.org/TR/2001/REC-SVG-20010904/DTD/svg10.dtd">
<svg version="1.0" xmlns="http://www.w3.org/2000/svg"
 width="2000.000000pt" height="2000.000000pt" viewBox="0 0 2000.000000 2000.000000"
 preserveAspectRatio="xMidYMid meet">

<g transform="translate(0.000000,2000.000000) scale(0.100000,-0.100000)"
fill="#000000" stroke="none">
<path d="M9655 19989 c-2193 -73 -4292 -863 -5985 -2253 -269 -221 -454 -389
-726 -661 -346 -345 -597 -628 -855 -965 -1026 -1335 -1680 -2837 -1953 -4485
-133 -800 -165 -1694 -91 -2535 170 -1920 915 -3780 2123 -5300 404 -509 882
-1001 1382 -1426 874 -742 1917 -1349 3005 -1749 1664 -612 3486 -768 5240
-449 1619 294 3131 982 4434 2017 487 387 992 878 1407 1367 1318 1554 2135
3505 2318 5540 29 321 39 539 39 910 0 593 -37 1052 -128 1615 -304 1877
-1129 3601 -2415 5050 -174 196 -614 634 -810 807 -1267 1117 -2700 1863
-4330 2256 -621 150 -1289 237 -2001 262 -307 10 -326 10 -654 -1z m-3299
-5410 c555 -56 931 -395 1011 -914 25 -167 6 -384 -49 -550 -66 -202 -200
-381 -372 -498 -311 -211 -807 -264 -1200 -128 -438 152 -706 535 -706 1010 0
636 457 1070 1146 1089 33 1 110 -3 170 -9z m6435 -2839 c577 -58 1057 -271
1420 -630 200 -198 345 -409 469 -680 94 -206 185 -509 224 -750 52 -317 50
-199 53 -2287 l4 -1943 -1105 0 -1105 0 -4 1723 c-4 1841 -2 1770 -52 2007
-67 321 -226 588 -434 730 -343 232 -867 226 -1206 -15 -176 -125 -389 -422
-442 -615 -16 -61 -18 -188 -20 -1922 l-4 -1858 -1090 0 -1090 0 7 413 c10
569 11 5640 1 5705 l-8 52 1091 0 1090 0 0 -462 0 -462 34 69 c170 351 628
687 1136 833 140 41 286 71 417 87 133 16 475 19 614 5z m-5541 -3200 l0
-3090 -957 2 -958 3 -3 3088 -2 3087 960 0 960 0 0 -3090z"/>
</g>
</svg>
